<svg width="11" height="16" viewBox="0 0 11 16" fill="none" xmlns="http://www.w3.org/2000/svg">
<g clip-path="url(#clip0_196_48)">
<path d="M0 6.85952C0 6.52289 0.272893 6.25 0.609523 6.25H10.3619C10.6986 6.25 10.9715 6.52289 10.9715 6.85952V15.3928C10.9715 15.7294 10.6986 16.0023 10.3619 16.0023H0.609523C0.272893 16.0023 0 15.7294 0 15.3928V6.85952ZM4.98668 11.1736C5.04039 11.2007 5.04039 11.2524 5.031 11.2808C4.86313 11.7882 4.61133 12.5494 4.2756 13.5642H6.65366C6.34814 12.5508 6.119 11.7907 5.96624 11.284C5.95736 11.2546 5.95736 11.2065 6.01165 11.1669C6.68905 10.8836 6.84469 10.4173 6.84469 9.99979C6.84469 9.21112 6.17976 8.69669 5.50766 8.6882C4.82094 8.67952 4.12674 9.19395 4.12674 9.99979C4.12674 10.3801 4.31605 10.8349 4.98668 11.1736Z" fill="#2AA1A8"/>
<path d="M3.04815 6.85714V3.80952C3.04815 0.355556 7.92434 0.355556 7.92434 3.80952V4.41905C7.92434 4.75568 8.19723 5.02857 8.53386 5.02857C8.87049 5.02857 9.14339 4.75568 9.14339 4.41905V3.80952C9.14339 -1.26984 1.8291 -1.26984 1.8291 3.80952V6.85714C1.8291 7.19377 2.10199 7.46667 2.43862 7.46667C2.77525 7.46667 3.04815 7.19377 3.04815 6.85714Z" fill="#2AA1A8"/>
</g>
<defs>
<clipPath id="clip0_196_48">
<rect width="11" height="16" fill="white"/>
</clipPath>
</defs>
</svg>
