<svg width="14" height="16" viewBox="0 0 14 16" fill="none" xmlns="http://www.w3.org/2000/svg">
<g clip-path="url(#clip0_196_66)">
<path d="M6.02729 6.446C6.02729 5.94895 5.62435 5.546 5.12729 5.546C4.63023 5.546 4.22729 5.94895 4.22729 6.446H6.02729ZM4.22729 12.6683C4.22729 13.1653 4.63023 13.5683 5.12729 13.5683C5.62435 13.5683 6.02729 13.1653 6.02729 12.6683H4.22729ZM9.32943 6.446C9.32943 5.94895 8.92649 5.546 8.42943 5.546C7.93238 5.546 7.52943 5.94895 7.52943 6.446H9.32943ZM7.52943 12.6683C7.52943 13.1653 7.93238 13.5683 8.42943 13.5683C8.92649 13.5683 9.32943 13.1653 9.32943 12.6683H7.52943ZM0.999609 3.21267C0.502553 3.21267 0.0996094 3.61561 0.0996094 4.11267C0.0996094 4.60973 0.502553 5.01267 0.999609 5.01267V3.21267ZM12.5571 5.01267C13.0542 5.01267 13.4571 4.60973 13.4571 4.11267C13.4571 3.61561 13.0542 3.21267 12.5571 3.21267V5.01267ZM4.22729 6.446V12.6683H6.02729V6.446H4.22729ZM7.52943 6.446V12.6683H9.32943V6.446H7.52943ZM10.8316 4.11267V12.5127H12.6316V4.11267H10.8316ZM9.08986 14.1016H4.46686V15.9016H9.08986V14.1016ZM0.925145 4.11267V12.5127H2.72515V4.11267H0.925145ZM4.46686 14.1016C3.99052 14.1016 3.68427 14.101 3.45152 14.0831C3.22779 14.0658 3.14956 14.0367 3.11614 14.0207L2.33716 15.6434C2.65692 15.7969 2.98645 15.8526 3.31337 15.8778C3.63125 15.9022 4.01852 15.9016 4.46686 15.9016V14.1016ZM0.925145 12.5127C0.925145 12.9326 0.924357 13.3049 0.951005 13.6122C0.97871 13.9316 1.04094 14.2614 1.21346 14.5804L2.79675 13.7241C2.78931 13.7104 2.76156 13.6559 2.74428 13.4566C2.72593 13.2451 2.72515 12.9641 2.72515 12.5127H0.925145ZM3.11614 14.0207C2.97006 13.9506 2.86137 13.8436 2.79675 13.7241L1.21346 14.5804C1.46542 15.0463 1.8619 15.4153 2.33716 15.6434L3.11614 14.0207ZM10.8316 12.5127C10.8316 12.9641 10.8308 13.2451 10.8124 13.4566C10.7952 13.6559 10.7674 13.7104 10.76 13.7241L12.3433 14.5804C12.5158 14.2614 12.578 13.9316 12.6057 13.6122C12.6324 13.3049 12.6316 12.9326 12.6316 12.5127H10.8316ZM9.08986 15.9016C9.53821 15.9016 9.92548 15.9022 10.2433 15.8778C10.5703 15.8526 10.8998 15.7969 11.2196 15.6434L10.4406 14.0207C10.4072 14.0367 10.3289 14.0658 10.1052 14.0831C9.87245 14.101 9.56621 14.1016 9.08986 14.1016V15.9016ZM10.76 13.7241C10.6953 13.8436 10.5867 13.9506 10.4406 14.0207L11.2196 15.6434C11.6948 15.4153 12.0913 15.0463 12.3433 14.5804L10.76 13.7241ZM0.999609 5.01267H1.82515V3.21267H0.999609V5.01267ZM1.82515 5.01267H3.88899V3.21267H1.82515V5.01267ZM3.88899 5.01267H9.66774V3.21267H3.88899V5.01267ZM9.66774 5.01267H11.7316V3.21267H9.66774V5.01267ZM11.7316 5.01267H12.5571V3.21267H11.7316V5.01267ZM4.78899 3.49045C4.78899 2.73426 5.54895 1.90156 6.77836 1.90156V0.101562C4.81625 0.101562 2.98899 1.49748 2.98899 3.49045H4.78899ZM6.77836 1.90156C8.00777 1.90156 8.76774 2.73426 8.76774 3.49045H10.5677C10.5677 1.49748 8.74047 0.101562 6.77836 0.101562V1.90156ZM2.98899 3.49045V4.11267H4.78899V3.49045H2.98899ZM8.76774 3.49045V4.11267H10.5677V3.49045H8.76774Z" fill="#EB462D"/>
</g>
<defs>
<clipPath id="clip0_196_66">
<rect width="14" height="16" fill="white"/>
</clipPath>
</defs>
</svg>
