<svg width="14" height="16" viewBox="0 0 14 16" fill="none" xmlns="http://www.w3.org/2000/svg">
<g clip-path="url(#clip0_196_51)">
<path d="M0.257812 3.85251L2.92263 5.38528L9.61105 1.53886L6.93568 0L0.257812 3.85251Z" fill="#2AA1A8"/>
<path d="M3.62695 5.78858L3.8002 5.88827L10.4791 2.03648L10.3048 1.9375L3.62695 5.78858Z" fill="#2AA1A8"/>
<path d="M4.47363 6.27349L6.9353 7.66148L13.59 3.82381L11.1526 2.42188L4.47363 6.27349Z" fill="#2AA1A8"/>
<path d="M6.93935 8.00299L4.31786 6.4951V8.67488L2.72942 7.76119V5.58141L0 4.00265V11.9599L6.97927 16.0016L13.8708 11.9823V3.9375L6.93935 8.00299ZM9.12039 12.7508V13.8036L8.28509 14.2907V13.238L7.90852 13.4254L8.69155 11.9377L9.48586 12.5417L9.12039 12.7508Z" fill="#2AA1A8"/>
</g>
<defs>
<clipPath id="clip0_196_51">
<rect width="14" height="16" fill="white"/>
</clipPath>
</defs>
</svg>
