<svg width="15" height="18" viewBox="0 0 15 18" fill="none" xmlns="http://www.w3.org/2000/svg">
<g clip-path="url(#clip0_196_56)">
<path d="M10.7867 8.81387C10.6729 8.7381 10.5402 8.75701 10.4455 8.83278C9.49762 9.53417 8.34122 9.93231 7.07107 9.93231C5.80093 9.93231 4.64453 9.51525 3.69666 8.83278C3.60184 8.75701 3.45017 8.75701 3.35549 8.81387C1.11859 10.2546 0 13.0793 0 16.321C0 18.5579 14.1422 18.5579 14.1422 16.321C14.142 13.0792 13.0236 10.2546 10.7867 8.81387Z" fill="#2AA1A8"/>
<path d="M11.2987 4.2275C11.2987 6.56227 9.40605 8.455 7.07124 8.455C4.73644 8.455 2.84375 6.56217 2.84375 4.2275C2.84375 1.89283 4.73644 0 7.07124 0C9.40605 0 11.2987 1.89269 11.2987 4.2275Z" fill="#2AA1A8"/>
</g>
<defs>
<clipPath id="clip0_196_56">
<rect width="15" height="18" fill="white"/>
</clipPath>
</defs>
</svg>
