<?xml version="1.0" encoding="UTF-8"?>
<!DOCTYPE svg PUBLIC "-//W3C//DTD SVG 1.1//EN" "http://www.w3.org/Graphics/SVG/1.1/DTD/svg11.dtd">
<svg xmlns="http://www.w3.org/2000/svg" version="1.1" width="500px" height="500px" style="shape-rendering:geometricPrecision; text-rendering:geometricPrecision; image-rendering:optimizeQuality; fill-rule:evenodd; clip-rule:evenodd" xmlns:xlink="http://www.w3.org/1999/xlink">
<g><path style="opacity:1" fill="#a1a6b7" d="M 199.5,451.5 C 199.44,450.957 199.107,450.624 198.5,450.5C 196.343,451.05 194.343,451.717 192.5,452.5C 191.508,452.672 190.842,452.338 190.5,451.5C 190.938,451.565 191.272,451.399 191.5,451C 189.951,449.786 188.785,448.286 188,446.5C 187.667,438.5 187.333,430.5 187,422.5C 186.503,425.146 186.336,427.813 186.5,430.5C 185.377,412.133 182.877,393.799 179,375.5C 169.177,337.876 159.511,300.209 150,262.5C 136.276,192.088 130.61,121.088 133,49.5C 134.995,47.253 137.495,46.253 140.5,46.5C 143.833,47.8333 147.167,47.8333 150.5,46.5C 156.593,49.2622 157.926,53.5955 154.5,59.5C 152.929,61.415 150.929,62.415 148.5,62.5C 148.593,119.141 152.76,175.474 161,231.5C 163.616,246.246 166.616,260.913 170,275.5C 178.333,306.5 186.667,337.5 195,368.5C 203.489,336.877 211.823,305.21 220,273.5C 234.713,203.953 241.879,133.62 241.5,62.5C 234.733,61.3176 232.233,57.3176 234,50.5C 235.227,48.2739 237.061,46.7739 239.5,46C 244.658,45.09 249.658,45.59 254.5,47.5C 255.333,48.5 256.167,49.5 257,50.5C 259.05,124.562 252.717,197.895 238,270.5C 228.332,307.838 218.665,345.172 209,382.5C 204.957,403.638 202.957,424.971 203,446.5C 202.777,448.881 201.61,450.547 199.5,451.5 Z"/></g>
<g><path style="opacity:0.755" fill="#767676" d="M 150.5,46.5 C 147.167,47.8333 143.833,47.8333 140.5,46.5C 143.652,45.761 146.985,45.761 150.5,46.5 Z"/></g>
<g><path style="opacity:1" fill="#a2a7b9" d="M 37.5,51.5 C 39.722,53.7654 42.722,55.9321 46.5,58C 50,61.5 53.5,65 57,68.5C 57.3988,68.2716 57.5654,67.9382 57.5,67.5C 66.4076,79.5623 70.741,93.229 70.5,108.5C 68.2208,135.564 62.8874,161.898 54.5,187.5C 53.2906,186.829 53.1239,188.162 54,191.5C 54.4709,193.246 55.1376,194.913 56,196.5C 56.4643,195.906 56.631,195.239 56.5,194.5C 62.4584,202.324 66.9584,210.99 70,220.5C 70.6667,291.833 70.6667,363.167 70,434.5C 64.6665,449.094 54.1665,455.428 38.5,453.5C 25.6738,454.835 15.8405,450.168 9,439.5C 8.07965,436.899 7.41299,434.232 7,431.5C 6.07992,359.823 6.41325,288.157 8,216.5C 10,208.5 12,200.5 14,192.5C 14.3333,145.5 14.6667,98.5 15,51.5C 16.3989,47.7623 19.0655,46.0956 23,46.5C 28.3657,46.8986 33.1991,48.5653 37.5,51.5 Z M 31.5,66.5 C 44.1512,73.773 51.3178,84.773 53,99.5C 53.7174,108.536 53.3841,117.536 52,126.5C 48.7935,143.991 44.9602,161.324 40.5,178.5C 37.5,178.5 34.5,178.5 31.5,178.5C 31.5,141.167 31.5,103.833 31.5,66.5 Z M 24.5,433.5 C 23.5065,362.875 23.1732,292.208 23.5,221.5C 26.1974,213.053 28.5307,204.386 30.5,195.5C 33.5719,195.183 36.5719,195.516 39.5,196.5C 44,204.833 48.5,213.167 53,221.5C 53.6667,291.5 53.6667,361.5 53,431.5C 52.1667,433.667 50.6667,435.167 48.5,436C 42.1667,436.667 35.8333,436.667 29.5,436C 27.5483,435.634 25.8816,434.801 24.5,433.5 Z"/></g>
<g><path style="opacity:1" fill="#a1a6b8" d="M 404.5,183.5 C 403.402,198.923 403.402,202.256 404.5,193.5C 407.256,247.356 410.089,301.356 413,355.5C 430.783,340.519 449.95,338.686 470.5,350C 482.202,358.241 489.202,369.407 491.5,383.5C 490.167,392.833 490.167,402.167 491.5,411.5C 486.77,437.398 471.27,451.064 445,452.5C 419.951,451.124 404.117,438.291 397.5,414C 387.172,413.5 376.839,413.334 366.5,413.5C 360.865,438.305 345.365,451.305 320,452.5C 294.676,451.178 279.009,438.178 273,413.5C 272.109,401.451 272.443,389.451 274,377.5C 281.519,355.656 296.852,343.99 320,342.5C 332.382,342.736 343.049,347.069 352,355.5C 353.542,319.66 355.375,283.993 357.5,248.5C 357.336,251.187 357.503,253.854 358,256.5C 358.437,246.663 358.937,236.83 359.5,227C 359.498,223.979 359.164,221.146 358.5,218.5C 360.889,165.498 363.389,112.498 366,59.5C 370.881,46.4864 379.714,42.9864 392.5,49C 395.106,50.9384 396.939,53.4384 398,56.5C 400.931,98.7801 403.097,141.113 404.5,183.5 Z M 381.5,71.5 C 382.167,75.1667 382.833,78.8333 383.5,82.5C 384.689,114.507 386.022,146.507 387.5,178.5C 383.818,178.665 380.152,178.499 376.5,178C 378.782,142.587 380.448,107.087 381.5,71.5 Z M 389.5,213.5 C 389.5,216.5 389.5,219.5 389.5,222.5C 389.741,233.679 390.407,244.679 391.5,255.5C 391.175,263.019 391.508,270.352 392.5,277.5C 393.046,301.854 394.046,326.187 395.5,350.5C 395.779,362.343 396.446,374.009 397.5,385.5C 397.5,389.5 397.5,393.5 397.5,397.5C 387.167,397.5 376.833,397.5 366.5,397.5C 369.921,331.577 372.921,265.577 375.5,199.5C 376.434,198.432 376.768,197.099 376.5,195.5C 380.5,195.5 384.5,195.5 388.5,195.5C 388.177,201.69 388.51,207.69 389.5,213.5 Z M 314.5,359.5 C 333.622,358.48 345.455,367.147 350,385.5C 350.667,393.833 350.667,402.167 350,410.5C 343.752,431.708 329.918,439.541 308.5,434C 296.557,428.72 290.057,419.553 289,406.5C 287.608,395.461 288.941,384.794 293,374.5C 298.438,366.875 305.605,361.875 314.5,359.5 Z M 439.5,359.5 C 458.616,358.473 470.45,367.14 475,385.5C 475.667,393.833 475.667,402.167 475,410.5C 471.131,426.534 460.965,435.201 444.5,436.5C 426.23,434.73 416.063,424.73 414,406.5C 412.608,395.461 413.941,384.794 418,374.5C 423.438,366.875 430.605,361.875 439.5,359.5 Z"/></g>
<g><path style="opacity:0.463" fill="#8b8c8c" d="M 37.5,51.5 C 45.6144,54.9398 52.281,60.2731 57.5,67.5C 57.5654,67.9382 57.3988,68.2716 57,68.5C 53.5,65 50,61.5 46.5,58C 42.722,55.9321 39.722,53.7654 37.5,51.5 Z"/></g>
<g><path style="opacity:0.051" fill="#dddedd" d="M 383.5,82.5 C 382.833,78.8333 382.167,75.1667 381.5,71.5C 381.34,69.8008 381.506,68.1341 382,66.5C 383.339,71.7364 383.839,77.0698 383.5,82.5 Z"/></g>
<g><path style="opacity:0.086" fill="#d5d8d5" d="M 31.5,66.5 C 31.5,103.833 31.5,141.167 31.5,178.5C 34.5,178.5 37.5,178.5 40.5,178.5C 37.3752,179.479 34.0419,179.813 30.5,179.5C 30.1682,141.663 30.5015,103.996 31.5,66.5 Z"/></g>
<g><path style="opacity:0.631" fill="#7e807f" d="M 54.5,187.5 C 55.1667,189.833 55.8333,192.167 56.5,194.5C 56.631,195.239 56.4643,195.906 56,196.5C 55.1376,194.913 54.4709,193.246 54,191.5C 53.1239,188.162 53.2906,186.829 54.5,187.5 Z"/></g>
<g><path style="opacity:0.13" fill="#cccccc" d="M 389.5,213.5 C 388.51,207.69 388.177,201.69 388.5,195.5C 384.5,195.5 380.5,195.5 376.5,195.5C 376.768,197.099 376.434,198.432 375.5,199.5C 375.5,197.833 375.5,196.167 375.5,194.5C 380.167,194.5 384.833,194.5 389.5,194.5C 389.5,200.833 389.5,207.167 389.5,213.5 Z"/></g>
<g><path style="opacity:0.755" fill="#6a6d6b" d="M 404.5,183.5 C 405.46,186.765 405.46,190.098 404.5,193.5C 403.402,202.256 403.402,198.923 404.5,183.5 Z"/></g>
<g><path style="opacity:0.288" fill="#c0c0c0" d="M 389.5,222.5 C 391.111,233.291 391.778,244.291 391.5,255.5C 390.407,244.679 389.741,233.679 389.5,222.5 Z"/></g>
<g><path style="opacity:0.525" fill="#8c8d8d" d="M 358.5,218.5 C 359.164,221.146 359.498,223.979 359.5,227C 358.937,236.83 358.437,246.663 358,256.5C 357.503,253.854 357.336,251.187 357.5,248.5C 357.41,238.482 357.743,228.482 358.5,218.5 Z"/></g>
<g><path style="opacity:0.302" fill="#aeafaf" d="M 23.5,221.5 C 23.1732,292.208 23.5065,362.875 24.5,433.5C 23.8826,433.389 23.3826,433.056 23,432.5C 22.1713,360.138 22.3379,289.805 23.5,221.5 Z"/></g>
<g><path style="opacity:0.341" fill="#a0a2a1" d="M 395.5,350.5 C 394.046,326.187 393.046,301.854 392.5,277.5C 394.221,293.636 395.555,315.136 396.5,342C 396.498,345.021 396.164,347.854 395.5,350.5 Z"/></g>
<g><path style="opacity:0.737" fill="#7c7c7c" d="M 491.5,383.5 C 492.795,392.83 492.795,402.163 491.5,411.5C 490.167,402.167 490.167,392.833 491.5,383.5 Z"/></g>
<g><path style="opacity:0.503" fill="#8f8f8f" d="M 366.5,397.5 C 376.833,397.5 387.167,397.5 397.5,397.5C 397.5,393.5 397.5,389.5 397.5,385.5C 397.335,382.482 397.502,379.482 398,376.5C 398.5,383.826 398.666,391.159 398.5,398.5C 387.654,398.828 376.987,398.494 366.5,397.5 Z"/></g>
<g><path style="opacity:0.44" fill="#8a8c8b" d="M 190.5,451.5 C 188.827,450.657 187.66,449.324 187,447.5C 186.501,441.843 186.334,436.176 186.5,430.5C 186.336,427.813 186.503,425.146 187,422.5C 187.333,430.5 187.667,438.5 188,446.5C 188.785,448.286 189.951,449.786 191.5,451C 191.272,451.399 190.938,451.565 190.5,451.5 Z"/></g>
<g><path style="opacity:0.635" fill="#5f5f5f" d="M 199.5,451.5 C 197.283,452.369 194.95,452.702 192.5,452.5C 194.343,451.717 196.343,451.05 198.5,450.5C 199.107,450.624 199.44,450.957 199.5,451.5 Z"/></g>
</svg>
