<svg width="449" height="435" viewBox="0 0 449 435" fill="none" xmlns="http://www.w3.org/2000/svg">
<g clip-path="url(#clip0_4_6)">
<path d="M9.81904 15.4824C11.5769 15.4635 11.5769 15.4635 13.3702 15.4442C15.2656 15.4564 15.2656 15.4564 17.1992 15.4688C18.5039 15.4649 19.8087 15.4611 21.153 15.4572C23.9162 15.4513 26.6789 15.4598 29.4421 15.4785C32.9615 15.5012 36.4796 15.4883 39.9989 15.4642C43.3783 15.4462 46.7573 15.4589 50.1367 15.4688C51.3901 15.4607 52.6435 15.4526 53.9349 15.4442C62.2174 15.5321 68.5456 16.6957 75.2695 21.6836C78.6359 25.5102 80.5304 29.0028 81.9648 33.9023C82.4698 35.6229 82.4698 35.6229 82.9851 37.3782C84.6382 43.2778 86.2208 49.1921 87.75 55.125C88.0658 56.329 88.3816 57.533 88.707 58.7734C89.0048 59.9233 89.3025 61.0731 89.6093 62.2578C89.8771 63.2905 90.1449 64.3232 90.4209 65.3872C91 68 91 68 91 71C140.83 71 190.66 71 242 71C243.98 78.425 243.98 78.425 246 86C247.138 88.9607 248.234 91.6843 249.625 94.5C249.965 95.2023 250.305 95.9046 250.655 96.6282C260.142 115.655 274.326 131.825 289 147C289.861 147.891 290.722 148.781 291.609 149.699C296.214 154.375 301.002 158.752 306 163C307.4 164.216 307.4 164.216 308.828 165.457C329.167 184.155 329.167 184.155 355.035 190.367C365.389 189.085 372.62 183.767 380.433 177.295C381.89 176.091 383.368 174.911 384.848 173.734C391.307 168.567 397.411 163.053 403.462 157.42C405.023 155.979 406.598 154.556 408.18 153.137C413.08 148.729 417.822 144.317 422.066 139.258C424.775 136.095 427.607 133.053 430.437 130C430.983 129.411 431.528 128.822 432.09 128.215C433.392 126.809 434.696 125.405 436 124C437.484 126.968 436.358 128.565 435.325 131.68C434.73 133.493 434.73 133.493 434.123 135.343C433.672 136.689 433.221 138.036 432.771 139.382C432.304 140.795 431.838 142.207 431.372 143.62C430.102 147.465 428.822 151.307 427.54 155.149C426.472 158.354 425.408 161.56 424.343 164.766C421.832 172.331 419.312 179.894 416.787 187.455C414.182 195.257 411.592 203.063 409.008 210.872C406.791 217.573 404.564 224.27 402.331 230.964C400.996 234.964 399.665 238.966 398.343 242.97C397.099 246.738 395.843 250.501 394.578 254.262C394.116 255.643 393.658 257.025 393.204 258.408C392.584 260.298 391.947 262.182 391.31 264.066C390.783 265.649 390.783 265.649 390.245 267.264C388.787 270.469 387.945 272.025 385 274C381.701 274.581 378.446 274.522 375.104 274.481C374.088 274.484 373.072 274.488 372.025 274.491C368.61 274.498 365.195 274.476 361.78 274.454C359.336 274.453 356.892 274.454 354.448 274.456C349.182 274.457 343.915 274.445 338.648 274.423C331.034 274.39 323.419 274.38 315.804 274.375C303.45 274.366 291.095 274.34 278.741 274.302C266.74 274.265 254.739 274.237 242.737 274.22C241.998 274.219 241.258 274.218 240.496 274.217C236.785 274.211 233.074 274.206 229.363 274.201C198.575 274.16 167.788 274.089 137 274C136.694 274.938 136.387 275.877 136.072 276.844C135.102 279.7 133.981 282.25 132.617 284.934C132.172 285.83 131.728 286.727 131.269 287.65C130.34 289.508 129.402 291.363 128.457 293.213C125.624 298.965 123.568 303.679 125.699 310.109C128.437 314.654 130.902 317.147 136.041 318.562C140.335 319.197 144.578 319.139 148.913 319.131C150.422 319.134 150.422 319.134 151.962 319.138C155.337 319.144 158.711 319.143 162.086 319.142C164.504 319.145 166.922 319.148 169.34 319.152C174.548 319.16 179.756 319.165 184.965 319.169C193.195 319.174 201.426 319.191 209.656 319.21C212.473 319.216 215.289 319.223 218.106 319.229C219.161 319.231 219.161 319.231 220.238 319.234C228.246 319.252 236.253 319.268 244.26 319.283C244.992 319.284 245.724 319.286 246.478 319.287C258.347 319.309 270.217 319.32 282.086 319.327C294.272 319.335 306.459 319.359 318.645 319.395C326.162 319.417 333.679 319.427 341.197 319.421C346.953 319.417 352.708 319.434 358.464 319.459C360.828 319.466 363.192 319.466 365.556 319.459C368.776 319.45 371.994 319.466 375.213 319.488C376.156 319.479 377.098 319.471 378.068 319.462C384.38 319.541 384.38 319.541 387.578 321.907C389.114 324.168 389.542 325.292 389.5 328C389.51 328.66 389.521 329.32 389.531 330C388.707 333.102 387.607 334.085 385 336C381.652 336.612 378.332 336.539 374.937 336.508C373.902 336.514 372.868 336.52 371.802 336.527C368.325 336.543 364.849 336.53 361.372 336.518C358.884 336.523 356.395 336.53 353.907 336.539C347.842 336.555 341.777 336.553 335.712 336.541C330.78 336.532 325.848 336.531 320.917 336.535C319.864 336.536 319.864 336.536 318.79 336.537C317.364 336.538 315.938 336.54 314.513 336.541C301.137 336.552 287.76 336.539 274.384 336.518C262.916 336.5 251.448 336.503 239.98 336.521C226.659 336.543 213.339 336.551 200.018 336.539C198.596 336.538 197.174 336.537 195.752 336.535C195.053 336.535 194.353 336.534 193.632 336.533C188.711 336.53 183.79 336.536 178.869 336.545C172.236 336.558 165.604 336.549 158.971 336.526C156.538 336.52 154.105 336.522 151.672 336.531C148.347 336.542 145.023 336.528 141.698 336.508C140.259 336.521 140.259 336.521 138.791 336.535C129.506 336.427 122.541 333.226 115.789 326.918C109.731 320.424 107.059 313.431 106.687 304.625C107.095 293.602 112.714 284.361 118.057 275.01C118.858 273.506 118.858 273.506 119.676 271.973C120.417 270.646 120.417 270.646 121.173 269.293C123.106 261.594 119.452 252.392 117.504 244.828C117.261 243.871 117.018 242.914 116.767 241.928C115.964 238.772 115.156 235.619 114.348 232.465C113.774 230.215 113.201 227.966 112.628 225.716C111.094 219.7 109.556 213.685 108.017 207.671C106.42 201.426 104.827 195.18 103.233 188.935C99.7783 175.4 96.3165 161.867 92.8531 148.334C91.7965 144.205 90.7405 140.075 89.6846 135.946C87.0884 125.793 84.4894 115.641 81.8867 105.49C81.3248 103.298 80.7632 101.106 80.2016 98.9143C78.1656 90.9695 76.1172 83.0281 74.0567 75.0896C73.0972 71.3852 72.1519 67.6774 71.2075 63.9692C70.3985 60.8021 69.5808 57.6374 68.7611 54.4731C68.3691 52.9524 67.9807 51.4308 67.5961 49.9081C67.0635 47.8017 66.518 45.699 65.9694 43.5967C65.661 42.3932 65.3526 41.1898 65.0348 39.9499C63.7856 36.3577 63.7856 36.3577 61 34C58.5156 33.5476 58.5156 33.5476 55.6899 33.6152C54.6051 33.6051 53.5203 33.595 52.4027 33.5846C51.2308 33.5876 50.0589 33.5906 48.8515 33.5938C47.0445 33.5775 47.0445 33.5775 45.201 33.5609C41.3422 33.5266 37.4838 33.511 33.625 33.5C28.5544 33.4855 23.4844 33.4518 18.414 33.4062C17.2462 33.4093 16.0783 33.4123 14.8751 33.4154C13.784 33.4053 12.6929 33.3952 11.5688 33.3848C10.6119 33.3827 9.65497 33.3807 8.66905 33.3785C5.48531 32.927 3.59189 31.8739 0.999952 30C-0.56476 26.8706 -0.697068 23.3892 -4.80115e-05 20C3.03431 16.1735 4.9968 15.4973 9.81904 15.4824Z" fill="#2AA1A8"/>
<path d="M347.66 9.82813C350.16 11.2985 350.16 11.2985 354 11C356.222 9.96687 358.406 8.85124 360.563 7.6875C375.017 0.270231 390.622 -1.52595 406.5 2.5625C422.351 7.87111 434.701 18.0204 442.473 32.8008C449.02 46.6017 450.635 63.1631 446.164 77.9531C441.56 90.0038 435.799 100.721 428 111C427.353 111.859 426.706 112.717 426.039 113.602C418.645 123.109 410.295 131.782 401.813 140.312C401.255 140.875 400.697 141.437 400.123 142.017C366.109 175.901 366.109 175.901 352.313 176.312C341.723 176.099 335.19 169.015 327.611 162.389C325.288 160.387 322.894 158.478 320.5 156.562C314.073 151.313 307.996 145.733 302 140C301.353 139.382 300.706 138.763 300.04 138.126C278.201 117.116 256.625 91.1484 255.004 59.5469C254.986 43.1268 261.122 29.9257 271.953 17.8164C292.24 -2.04485 323.89 -4.61248 347.66 9.82813Z" fill="#2AA1A8"/>
<path d="M375.52 359.051C382.543 364.57 387.349 373.215 389 382C389.892 394.982 388.834 406.637 380.043 416.965C371.143 425.83 361.904 429.231 349.563 429.438C337.513 429.354 328.848 425.385 320.094 417.223C312.707 409.57 309.614 399.108 309.789 388.586C310.691 377.523 314.667 367.72 322.875 360.125C338.581 347.435 359.137 348.029 375.52 359.051Z" fill="#2AA1A8"/>
<path d="M156.68 358.285C164.983 364.422 169.633 373.046 171.617 383.141C173.133 394.462 170.614 405.614 164 415C158.598 422.039 149.825 427.532 141 429C127.667 429.862 115.669 429.094 105.035 420.043C96.344 411.319 92.7806 402.267 92.5625 390.063C92.6411 379.37 96.0917 370.188 103 362C117.716 347.791 140.029 347.611 156.68 358.285Z" fill="#2AA1A8"/>
</g>
<defs>
<clipPath id="clip0_4_6">
<rect width="449" height="435" fill="white"/>
</clipPath>
</defs>
</svg>
