<?xml version="1.0" encoding="UTF-8"?>
<!DOCTYPE svg PUBLIC "-//W3C//DTD SVG 1.1//EN" "http://www.w3.org/Graphics/SVG/1.1/DTD/svg11.dtd">
<svg xmlns="http://www.w3.org/2000/svg" version="1.1" width="500px" height="500px" style="shape-rendering:geometricPrecision; text-rendering:geometricPrecision; image-rendering:optimizeQuality; fill-rule:evenodd; clip-rule:evenodd" xmlns:xlink="http://www.w3.org/1999/xlink">
<g><path style="opacity:1" fill="#a1a6b8" d="M 3.5,-0.5 C 6.5,-0.5 9.5,-0.5 12.5,-0.5C 37.7398,26.5781 63.2398,53.5781 89,80.5C 92.5916,85.8682 92.0916,90.8682 87.5,95.5C 90.189,98.5198 92.8556,101.52 95.5,104.5C 99.0975,109.636 103.598,114.636 109,119.5C 109.399,119.272 109.565,118.938 109.5,118.5C 113.497,120.995 116.163,124.495 117.5,129C 114.513,135 110.347,140.167 105,144.5C 104.333,145.167 104.333,145.833 105,146.5C 118.333,159.833 131.667,173.167 145,186.5C 148.033,191.106 149.033,196.106 148,201.5C 145.606,207.287 142.94,212.954 140,218.5C 138.155,233.32 144.655,240.486 159.5,240C 168.947,236.443 178.281,232.61 187.5,228.5C 190.806,233.614 193.473,239.114 195.5,245C 183.877,250.319 171.877,254.653 159.5,258C 132.354,257.517 119.854,243.683 122,216.5C 124.182,209.614 126.515,202.947 129,196.5C 116.333,183.833 103.667,171.167 91,158.5C 86.4826,164.196 80.9826,168.529 74.5,171.5C 72.9745,171.006 71.6412,170.339 70.5,169.5C 61.3689,159.868 52.0356,150.368 42.5,141C 41.5632,140.308 40.8966,140.475 40.5,141.5C 36.7521,147.015 32.0854,147.849 26.5,144C 17.2819,136.273 8.28186,128.439 -0.5,120.5C -0.5,81.5 -0.5,42.5 -0.5,3.5C 0.833333,2.16667 2.16667,0.833333 3.5,-0.5 Z M 16.5,31.5 C 34.6328,49.8004 52.6328,68.3004 70.5,87C 68.249,87.7475 66.9156,89.2475 66.5,91.5C 58.5,98.8333 50.8333,106.5 43.5,114.5C 39.8534,117.811 36.1867,121.145 32.5,124.5C 27.136,120.158 21.8027,115.825 16.5,111.5C 16.5,84.8333 16.5,58.1667 16.5,31.5 Z M 74.5,108.5 C 80.9366,115.438 87.6033,122.271 94.5,129C 87.6349,135.531 81.1349,142.364 75,149.5C 67.9853,142.652 61.152,135.652 54.5,128.5C 61.4939,122.173 68.1606,115.506 74.5,108.5 Z"/></g>
<g><path style="opacity:0.651" fill="#585858" d="M 16.5,31.5 C 16.5,58.1667 16.5,84.8333 16.5,111.5C 15.2091,83.251 15.2091,56.5843 16.5,31.5 Z"/></g>
<g><path style="opacity:1" fill="#9fa4b5" d="M 353.5,53.5 C 353.141,52.3742 351.808,51.7075 349.5,51.5C 348.584,51.5427 347.917,51.8761 347.5,52.5C 336.932,50.5595 326.265,50.0595 315.5,51C 301.059,54.9245 286.725,59.2578 272.5,64C 257.167,67.3333 241.833,67.3333 226.5,64C 214.105,60.2016 201.771,56.2016 189.5,52C 156.566,46.3942 128.566,55.5609 105.5,79.5C 101.141,75.4718 96.8073,71.4718 92.5,67.5C 119.102,39.1315 151.768,27.9648 190.5,34C 204.116,38.1543 217.783,42.1543 231.5,46C 243.5,48 255.5,48 267.5,46C 277.288,43.404 286.955,40.404 296.5,37C 342.778,25.0948 381.278,37.2615 412,73.5C 429.402,98.0611 436.402,125.394 433,155.5C 429.093,199.554 415.427,240.221 392,277.5C 389.387,293.457 387.054,309.457 385,325.5C 383.938,326.097 382.772,326.43 381.5,326.5C 376.837,325.739 372.17,325.072 367.5,324.5C 369.338,307.467 371.505,290.467 374,273.5C 380.985,260.198 387.985,246.865 395,233.5C 410.068,199.761 416.734,164.427 415,127.5C 408.366,91.1911 387.866,66.5244 353.5,53.5 Z"/></g>
<g><path style="opacity:0.725" fill="#595959" d="M 347.5,52.5 C 347.917,51.8761 348.584,51.5427 349.5,51.5C 351.808,51.7075 353.141,52.3742 353.5,53.5C 351.435,53.4828 349.435,53.1495 347.5,52.5 Z"/></g>
<g><path style="opacity:0.808" fill="#5c5c5c" d="M 66.5,91.5 C 59.8886,99.6352 52.3886,107.635 44,115.5C 43.6012,115.272 43.4346,114.938 43.5,114.5C 50.8333,106.5 58.5,98.8333 66.5,91.5 Z"/></g>
<g><path style="opacity:0.329" fill="#616161" d="M 95.5,104.5 C 100.5,108.833 105.167,113.5 109.5,118.5C 109.565,118.938 109.399,119.272 109,119.5C 103.598,114.636 99.0975,109.636 95.5,104.5 Z"/></g>
<g><path style="opacity:0.827" fill="#757575" d="M 40.5,141.5 C 40.8966,140.475 41.5632,140.308 42.5,141C 52.0356,150.368 61.3689,159.868 70.5,169.5C 60.2191,160.555 50.2191,151.222 40.5,141.5 Z"/></g>
<g><path style="opacity:1" fill="#a0a5b6" d="M 134.5,342.5 C 133.848,343.449 133.514,344.615 133.5,346C 134,349.5 134.5,353 135,356.5C 135.49,355.207 135.657,353.873 135.5,352.5C 139.571,380.043 143.738,407.71 148,435.5C 154.822,449.042 164.989,452.209 178.5,445C 182.145,441.547 184.645,437.38 186,432.5C 195.111,379.502 204.111,326.502 213,273.5C 222.456,253.855 237.956,246.022 259.5,250C 272.176,254.01 281.01,262.176 286,274.5C 292.274,310.48 298.441,346.48 304.5,382.5C 298.5,383.167 292.5,383.833 286.5,384.5C 280.913,349.398 274.746,314.398 268,279.5C 261.817,268.107 252.65,264.607 240.5,269C 235.123,272.043 231.623,276.543 230,282.5C 221.567,330.43 213.567,378.43 206,426.5C 202.026,456.388 185.193,469.221 155.5,465C 136.182,458.001 126.849,444.335 127.5,424C 121.071,375.44 114.238,326.607 107,277.5C 90.3484,252.391 78.8484,225.058 72.5,195.5C 73.3094,194.531 74.3094,193.698 75.5,193C 74.552,192.517 73.552,192.351 72.5,192.5C 77.946,190.723 83.6126,189.39 89.5,188.5C 91.8767,201.592 95.71,214.259 101,226.5C 108.596,242.414 116.596,258.08 125,273.5C 128.215,296.503 131.381,319.503 134.5,342.5 Z"/></g>
<g><path style="opacity:0.796" fill="#565656" d="M 72.5,192.5 C 73.552,192.351 74.552,192.517 75.5,193C 74.3094,193.698 73.3094,194.531 72.5,195.5C 71.375,194.348 71.375,193.348 72.5,192.5 Z"/></g>
<g><path style="opacity:1" fill="#a0a6b7" d="M 499.5,244.5 C 499.5,264.167 499.5,283.833 499.5,303.5C 468.062,335.438 436.395,367.272 404.5,399C 401.167,401 397.833,401 394.5,399C 392,396.5 389.5,394 387,391.5C 376.833,401.667 366.667,411.833 356.5,422C 373.978,448.771 369.311,471.104 342.5,489C 333.827,493.683 324.827,497.183 315.5,499.5C 305.167,499.5 294.833,499.5 284.5,499.5C 264.953,496.31 249.453,486.644 238,470.5C 227.392,447.431 232.225,428.265 252.5,413C 257.631,409.101 263.298,406.268 269.5,404.5C 269.56,405.043 269.893,405.376 270.5,405.5C 273.347,404.766 275.347,403.766 276.5,402.5C 280.515,400.627 284.849,399.627 289.5,399.5C 296.167,400.833 302.833,400.833 309.5,399.5C 317.272,400.274 324.605,402.274 331.5,405.5C 333.616,407.62 336.616,409.453 340.5,411C 341.5,411.667 342.5,411.667 343.5,411C 354.383,400.635 364.383,390.135 373.5,379.5C 371.949,376.437 369.782,373.771 367,371.5C 365.524,368.735 365.357,366.068 366.5,363.5C 406.04,323.293 446.707,282.627 488.5,241.5C 492.555,240.322 496.222,241.322 499.5,244.5 Z M 482.5,271.5 C 482.5,279.5 482.5,287.5 482.5,295.5C 472.112,304.886 462.446,314.886 453.5,325.5C 452.167,326.167 451.167,327.167 450.5,328.5C 436.919,340.578 423.753,353.244 411,366.5C 410.536,367.094 410.369,367.761 410.5,368.5C 406.562,371.098 402.895,374.098 399.5,377.5C 395.348,373.849 391.348,370.016 387.5,366C 419.035,334.299 450.701,302.799 482.5,271.5 Z M 294.5,416.5 C 312.885,415.377 328.718,421.044 342,433.5C 351.535,446.356 350.368,458.189 338.5,469C 317.423,483.274 295.09,485.608 271.5,476C 262,471.833 255.167,465 251,455.5C 249.517,442.632 254.35,432.799 265.5,426C 274.64,420.808 284.307,417.641 294.5,416.5 Z"/></g>
<g><path style="opacity:0.651" fill="#565656" d="M 482.5,296.5 C 482.5,296.167 482.5,295.833 482.5,295.5C 482.5,287.5 482.5,279.5 482.5,271.5C 483.717,278.307 483.717,286.641 482.5,296.5 Z"/></g>
<g><path style="opacity:0.573" fill="#9d9d9d" d="M 488.5,241.5 C 446.707,282.627 406.04,323.293 366.5,363.5C 366.709,362.078 367.209,360.745 368,359.5C 406.833,320.667 445.667,281.833 484.5,243C 485.745,242.209 487.078,241.709 488.5,241.5 Z"/></g>
<g><path style="opacity:0.592" fill="#999999" d="M 482.5,295.5 C 482.5,295.833 482.5,296.167 482.5,296.5C 473.167,306.5 463.5,316.167 453.5,325.5C 462.446,314.886 472.112,304.886 482.5,295.5 Z"/></g>
<g><path style="opacity:0.557" fill="#9c9c9c" d="M 450.5,328.5 C 437.5,342.167 424.167,355.5 410.5,368.5C 410.369,367.761 410.536,367.094 411,366.5C 423.753,353.244 436.919,340.578 450.5,328.5 Z"/></g>
<g><path style="opacity:0.467" fill="#686868" d="M 134.5,342.5 C 135.207,345.786 135.54,349.119 135.5,352.5C 135.657,353.873 135.49,355.207 135,356.5C 134.5,353 134,349.5 133.5,346C 133.514,344.615 133.848,343.449 134.5,342.5 Z"/></g>
<g><path style="opacity:0.761" fill="#707070" d="M 309.5,399.5 C 302.833,400.833 296.167,400.833 289.5,399.5C 296.154,398.276 302.82,398.276 309.5,399.5 Z"/></g>
<g><path style="opacity:0.788" fill="#5b5b5b" d="M 276.5,402.5 C 275.347,403.766 273.347,404.766 270.5,405.5C 269.893,405.376 269.56,405.043 269.5,404.5C 271.515,403.076 273.848,402.41 276.5,402.5 Z"/></g>
<g><path style="opacity:0.573" fill="#909090" d="M 373.5,379.5 C 364.383,390.135 354.383,400.635 343.5,411C 342.5,411.667 341.5,411.667 340.5,411C 336.616,409.453 333.616,407.62 331.5,405.5C 335.176,406.754 338.676,408.421 342,410.5C 352.368,399.965 362.868,389.631 373.5,379.5 Z"/></g>
</svg>
