<?xml version="1.0" encoding="UTF-8"?>
<!DOCTYPE svg PUBLIC "-//W3C//DTD SVG 1.1//EN" "http://www.w3.org/Graphics/SVG/1.1/DTD/svg11.dtd">
<svg xmlns="http://www.w3.org/2000/svg" version="1.1" width="500px" height="500px" style="shape-rendering:geometricPrecision; text-rendering:geometricPrecision; image-rendering:optimizeQuality; fill-rule:evenodd; clip-rule:evenodd" xmlns:xlink="http://www.w3.org/1999/xlink">
<g><path style="opacity:1" fill="#a2a7b7" d="M 304.5,30.5 C 308.909,29.6185 312.409,30.9518 315,34.5C 315.667,44.5 315.667,54.5 315,64.5C 309.514,70.0804 304.514,69.747 300,63.5C 299.333,53.8333 299.333,44.1667 300,34.5C 301.397,32.9297 302.897,31.5964 304.5,30.5 Z"/></g>
<g><path style="opacity:1" fill="#a3a8b6" d="M 266.5,40.5 C 270.426,40.0466 273.592,41.3799 276,44.5C 279.333,50.5 282.667,56.5 286,62.5C 287.029,67.0802 285.529,70.5802 281.5,73C 278.208,73.9357 275.208,73.4357 272.5,71.5C 268.468,65.2981 264.635,58.9648 261,52.5C 259.393,46.7212 261.227,42.7212 266.5,40.5 Z"/></g>
<g><path style="opacity:1" fill="#a2a6b6" d="M 344.5,40.5 C 352.642,40.4807 355.808,44.4807 354,52.5C 350.333,58.8333 346.667,65.1667 343,71.5C 333.835,75.42 329.502,72.42 330,62.5C 333.078,56.0087 336.412,49.6754 340,43.5C 341.409,42.2189 342.909,41.2189 344.5,40.5 Z"/></g>
<g><path style="opacity:1" fill="#a0a5b7" d="M 499.5,297.5 C 499.5,327.5 499.5,357.5 499.5,387.5C 494.918,401.246 485.585,410.079 471.5,414C 458.738,414.038 446.072,414.705 433.5,416C 427.509,444.658 410.176,461.991 381.5,468C 347.65,471.003 324.483,456.837 312,425.5C 311.178,422.883 310.678,420.216 310.5,417.5C 311.434,416.432 311.768,415.099 311.5,413.5C 266.495,413.167 221.495,413.5 176.5,414.5C 176.624,415.107 176.957,415.44 177.5,415.5C 168.653,452.933 144.986,470.433 106.5,468C 77.7448,461.745 60.0781,444.245 53.5,415.5C 44.8812,414.695 36.2146,414.195 27.5,414C 12.9463,409.945 3.61297,400.778 -0.5,386.5C -0.5,343.5 -0.5,300.5 -0.5,257.5C 2.83001,253.501 6.83001,252.668 11.5,255C 13.16,256.488 14.16,258.321 14.5,260.5C 13.5031,278.993 13.1698,297.659 13.5,316.5C 81.8333,316.5 150.167,316.5 218.5,316.5C 218.832,263.331 218.499,210.331 217.5,157.5C 155.998,157.168 94.6644,157.501 33.5,158.5C 25.4772,160.349 19.6439,165.016 16,172.5C 14.7288,192.124 14.0622,211.79 14,231.5C 9.61347,237.633 4.78014,237.967 -0.5,232.5C -0.5,211.833 -0.5,191.167 -0.5,170.5C 3.52976,156.139 12.8631,147.139 27.5,143.5C 109.959,143.513 192.625,143.513 275.5,143.5C 275.821,137.974 275.488,132.64 274.5,127.5C 278.586,104.593 292.252,94.4259 315.5,97C 328.414,100.915 336.581,109.415 340,122.5C 340.5,129.158 340.666,135.825 340.5,142.5C 353.816,142.408 364.316,147.741 372,158.5C 384,187.167 396,215.833 408,244.5C 408.883,247.102 410.383,249.269 412.5,251C 435.553,258.796 458.553,266.796 481.5,275C 490.26,280.387 496.26,287.887 499.5,297.5 Z M 304.5,112.5 C 315.554,112.384 322.388,117.718 325,128.5C 325.499,133.155 325.666,137.821 325.5,142.5C 313.833,142.5 302.167,142.5 290.5,142.5C 290.123,135.743 290.623,129.076 292,122.5C 294.91,117.406 299.077,114.072 304.5,112.5 Z M 484.5,306.5 C 484.5,309.5 484.5,312.5 484.5,315.5C 445.996,315.168 407.663,315.501 369.5,316.5C 365.686,319.152 364.519,322.819 366,327.5C 367.214,329.049 368.714,330.215 370.5,331C 408.499,331.5 446.499,331.667 484.5,331.5C 484.928,348.881 484.428,366.214 483,383.5C 480.101,390.732 474.934,395.565 467.5,398C 456.152,398.832 444.819,398.666 433.5,397.5C 423.925,360.213 399.925,342.713 361.5,345C 350.471,346.851 340.805,351.351 332.5,358.5C 329.5,360.833 326.833,363.5 324.5,366.5C 316.598,375.308 311.598,385.641 309.5,397.5C 284.175,398.5 258.842,398.833 233.5,398.5C 233.5,376.167 233.5,353.833 233.5,331.5C 269.671,331.832 305.671,331.498 341.5,330.5C 345.083,329.578 346.75,327.244 346.5,323.5C 346.849,320.029 345.516,317.529 342.5,316C 306.168,315.5 269.835,315.333 233.5,315.5C 233.5,263.167 233.5,210.833 233.5,158.5C 270.502,158.333 307.502,158.5 344.5,159C 351.362,160.526 356.528,164.359 360,170.5C 369.862,194.42 379.529,218.42 389,242.5C 392.083,254.53 399.249,263.03 410.5,268C 431.983,274.939 453.316,282.272 474.5,290C 480.281,294.07 483.615,299.57 484.5,306.5 Z M 334.5,187.5 C 341.572,207.379 349.238,227.045 357.5,246.5C 326.184,248.493 294.518,249.159 262.5,248.5C 262.5,228.5 262.5,208.5 262.5,188.5C 286.328,187.502 310.328,187.169 334.5,187.5 Z M 14.5,331.5 C 81.8333,331.5 149.167,331.5 216.5,331.5C 216.5,353.833 216.5,376.167 216.5,398.5C 203.5,398.5 190.5,398.5 177.5,398.5C 170.729,364.865 150.229,346.865 116,344.5C 86.4058,346.095 66.4058,360.762 56,388.5C 54.9571,391.757 54.4571,395.09 54.5,398.5C 46.8261,398.666 39.1594,398.5 31.5,398C 22.0021,394.839 16.5021,388.339 15,378.5C 14.5001,362.837 14.3334,347.17 14.5,331.5 Z M 111.5,360.5 C 133.418,360.369 149.251,370.035 159,389.5C 166.152,413.688 159.319,432.855 138.5,447C 115.497,457.79 95.6633,453.623 79,434.5C 68.0863,416.711 67.753,398.711 78,380.5C 86.3821,369.063 97.5488,362.396 111.5,360.5 Z M 406.5,437.5 C 404.833,438.5 403.5,439.833 402.5,441.5C 382.333,455.952 362,456.119 341.5,442C 327.57,428.115 323.07,411.615 328,392.5C 338.115,368.188 356.281,358.021 382.5,362C 411.265,372.356 422.098,392.523 415,422.5C 412.661,427.852 409.828,432.852 406.5,437.5 Z M 113.5,400.5 C 120.329,399.828 123.163,402.828 122,409.5C 117.528,415.073 113.528,414.74 110,408.5C 109.279,404.946 110.446,402.28 113.5,400.5 Z M 368.5,400.5 C 377.318,400.296 379.651,404.13 375.5,412C 369.723,414.611 366.39,412.778 365.5,406.5C 365.628,404.045 366.628,402.045 368.5,400.5 Z"/></g>
<g><path style="opacity:0.475" fill="#848484" d="M 274.5,127.5 C 275.488,132.64 275.821,137.974 275.5,143.5C 192.625,143.513 109.959,143.513 27.5,143.5C 109.665,142.501 191.998,142.167 274.5,142.5C 274.5,137.5 274.5,132.5 274.5,127.5 Z"/></g>
<g><path style="opacity:0.078" fill="#e8e8e8" d="M 33.5,158.5 C 94.6644,157.501 155.998,157.168 217.5,157.5C 217.832,210.336 217.499,263.003 216.5,315.5C 216.5,263.167 216.5,210.833 216.5,158.5C 155.5,158.5 94.5,158.5 33.5,158.5 Z"/></g>
<g><path style="opacity:1" fill="#a0a5b7" d="M 138.5,183.5 C 137.506,193.987 137.172,204.654 137.5,215.5C 148.172,215.667 158.839,215.5 169.5,215C 158.992,214.83 148.659,214.33 138.5,213.5C 150.243,213.064 161.91,213.564 173.5,215C 176.728,216.563 178.895,219.063 180,222.5C 181.97,231.847 181.97,241.18 180,250.5C 178.895,253.937 176.728,256.437 173.5,258C 161.91,259.436 150.243,259.936 138.5,259.5C 138.667,270.172 138.5,280.839 138,291.5C 136.932,296.235 134.099,299.402 129.5,301C 120.5,301.667 111.5,301.667 102.5,301C 97.1239,298.96 93.9572,295.127 93,289.5C 92.5002,279.506 92.3335,269.506 92.5,259.5C 82.1613,259.666 71.828,259.5 61.5,259C 56.4268,257.594 52.9268,254.428 51,249.5C 50.3333,240.833 50.3333,232.167 51,223.5C 52.8534,218.473 56.3534,215.473 61.5,214.5C 72.1667,214.5 82.8333,214.5 93.5,214.5C 93.5,204.167 93.5,193.833 93.5,183.5C 94.0105,177.812 97.0105,173.979 102.5,172C 107,171.833 111.5,171.667 116,171.5C 127.507,168.662 135.007,172.662 138.5,183.5 Z M 165.5,230.5 C 165.5,234.833 165.5,239.167 165.5,243.5C 154.5,243.5 143.5,243.5 132.5,243.5C 127.548,244.125 124.548,246.791 123.5,251.5C 122.505,262.654 122.172,273.988 122.5,285.5C 118.298,285.183 114.298,285.517 110.5,286.5C 109.669,274.674 109.169,262.674 109,250.5C 107.086,246.414 103.92,244.081 99.5,243.5C 88.8333,243.5 78.1667,243.5 67.5,243.5C 67.5,239.167 67.5,234.833 67.5,230.5C 78.6794,230.828 89.6794,230.495 100.5,229.5C 100.833,229.5 101.167,229.5 101.5,229.5C 105.417,228.752 107.917,226.418 109,222.5C 109.5,210.838 109.667,199.171 109.5,187.5C 113.833,187.5 118.167,187.5 122.5,187.5C 122.333,198.838 122.5,210.172 123,221.5C 124.167,226 127,228.833 131.5,230C 142.828,230.5 154.162,230.667 165.5,230.5 Z"/></g>
<g><path style="opacity:1" fill="#a1a6b7" d="M 254.5,171.5 C 283.169,171.333 311.835,171.5 340.5,172C 345.052,173.588 347.885,176.755 349,181.5C 358.954,204.696 368.121,228.196 376.5,252C 375.803,258.364 372.469,262.697 366.5,265C 329.833,265.667 293.167,265.667 256.5,265C 251.333,263.833 248.167,260.667 247,255.5C 246.333,230.5 246.333,205.5 247,180.5C 248.642,176.7 251.142,173.7 254.5,171.5 Z M 334.5,187.5 C 341.572,207.379 349.238,227.045 357.5,246.5C 326.184,248.493 294.518,249.159 262.5,248.5C 262.5,228.5 262.5,208.5 262.5,188.5C 286.328,187.502 310.328,187.169 334.5,187.5 Z"/></g>
<g><path style="opacity:0.463" fill="#868686" d="M 334.5,187.5 C 310.328,187.169 286.328,187.502 262.5,188.5C 260.621,188.607 260.288,188.107 261.5,187C 286.003,186.17 310.337,186.337 334.5,187.5 Z"/></g>
<g><path style="opacity:0.059" fill="#f4f4f4" d="M 93.5,183.5 C 93.5,193.833 93.5,204.167 93.5,214.5C 82.8333,214.5 72.1667,214.5 61.5,214.5C 71.6532,213.506 81.9865,213.172 92.5,213.5C 92.1726,203.319 92.506,193.319 93.5,183.5 Z"/></g>
<g><path style="opacity:0.686" fill="#606060" d="M 138.5,183.5 C 138.5,193.5 138.5,203.5 138.5,213.5C 148.659,214.33 158.992,214.83 169.5,215C 158.839,215.5 148.172,215.667 137.5,215.5C 137.172,204.654 137.506,193.987 138.5,183.5 Z"/></g>
<g><path style="opacity:0.149" fill="#dfdfdf" d="M 100.5,229.5 C 89.6794,230.495 78.6794,230.828 67.5,230.5C 67.5,234.833 67.5,239.167 67.5,243.5C 66.5139,239.03 66.1805,234.363 66.5,229.5C 77.8333,229.5 89.1667,229.5 100.5,229.5 Z"/></g>
<g><path style="opacity:0.522" fill="#686868" d="M 101.5,229.5 C 101.167,229.5 100.833,229.5 100.5,229.5C 89.1667,229.5 77.8333,229.5 66.5,229.5C 66.1805,234.363 66.5139,239.03 67.5,243.5C 78.1667,243.5 88.8333,243.5 99.5,243.5C 88.3456,244.495 77.0123,244.828 65.5,244.5C 65.5,239.167 65.5,233.833 65.5,228.5C 77.6783,228.172 89.6783,228.505 101.5,229.5 Z"/></g>
<g><path style="opacity:0.522" fill="#6b6b6b" d="M 132.5,243.5 C 143.5,243.5 154.5,243.5 165.5,243.5C 165.5,239.167 165.5,234.833 165.5,230.5C 166.501,234.396 166.834,239.063 166.5,244.5C 154.988,244.828 143.654,244.495 132.5,243.5 Z"/></g>
<g><path style="opacity:0.004" fill="#fdfdfd" d="M 357.5,246.5 C 358.167,247.167 358.833,247.833 359.5,248.5C 327.338,249.498 295.004,249.832 262.5,249.5C 262.5,249.167 262.5,248.833 262.5,248.5C 294.518,249.159 326.184,248.493 357.5,246.5 Z"/></g>
<g><path style="opacity:0.604" fill="#636363" d="M 359.5,248.5 C 360.043,248.56 360.376,248.893 360.5,249.5C 344,249.833 327.5,250.167 311,250.5C 294.094,250.507 277.927,250.174 262.5,249.5C 295.004,249.832 327.338,249.498 359.5,248.5 Z"/></g>
<g><path style="opacity:0.239" fill="#cecece" d="M 123.5,251.5 C 123.5,263.167 123.5,274.833 123.5,286.5C 119.167,286.5 114.833,286.5 110.5,286.5C 114.298,285.517 118.298,285.183 122.5,285.5C 122.172,273.988 122.505,262.654 123.5,251.5 Z"/></g>
<g><path style="opacity:0.643" fill="#5a5a5a" d="M 217.5,157.5 C 218.499,210.331 218.832,263.331 218.5,316.5C 150.167,316.5 81.8333,316.5 13.5,316.5C 13.1698,297.659 13.5031,278.993 14.5,260.5C 14.5,278.833 14.5,297.167 14.5,315.5C 81.8333,315.5 149.167,315.5 216.5,315.5C 217.499,263.003 217.832,210.336 217.5,157.5 Z"/></g>
<g><path style="opacity:0.643" fill="#5a5a5a" d="M 369.5,316.5 C 407.663,315.501 445.996,315.168 484.5,315.5C 484.5,312.5 484.5,309.5 484.5,306.5C 485.806,306.858 486.139,310.191 485.5,316.5C 446.528,316.511 407.861,316.511 369.5,316.5 Z"/></g>
<g><path style="opacity:0.035" fill="#fcfcfc" d="M 14.5,331.5 C 81.9979,330.501 149.665,330.167 217.5,330.5C 217.831,353.339 217.497,376.006 216.5,398.5C 216.5,376.167 216.5,353.833 216.5,331.5C 149.167,331.5 81.8333,331.5 14.5,331.5 Z"/></g>
<g><path style="opacity:0.157" fill="#e5e5e5" d="M 341.5,330.5 C 305.671,331.498 269.671,331.832 233.5,331.5C 233.5,353.833 233.5,376.167 233.5,398.5C 232.503,376.006 232.169,353.339 232.5,330.5C 268.833,330.5 305.167,330.5 341.5,330.5 Z"/></g>
<g><path style="opacity:0.843" fill="#5b5b5b" d="M 332.5,358.5 C 332.938,358.435 333.272,358.601 333.5,359C 330.667,361.833 327.833,364.667 325,367.5C 324.601,367.272 324.435,366.938 324.5,366.5C 326.833,363.5 329.5,360.833 332.5,358.5 Z"/></g>
<g><path style="opacity:1" fill="#9fa4b5" d="M 112.5,383.5 C 132.965,384.794 141.131,395.461 137,415.5C 128.503,429.5 117.003,432.666 102.5,425C 88.7599,410.932 89.7599,397.932 105.5,386C 108.004,385.302 110.337,384.469 112.5,383.5 Z M 113.5,400.5 C 110.446,402.28 109.279,404.946 110,408.5C 113.528,414.74 117.528,415.073 122,409.5C 123.163,402.828 120.329,399.828 113.5,400.5 Z"/></g>
<g><path style="opacity:1" fill="#a1a6b7" d="M 393.5,401.5 C 392.167,404.833 392.167,408.167 393.5,411.5C 389.589,424.225 380.922,430.058 367.5,429C 353.977,425.019 347.977,416.186 349.5,402.5C 349.337,404.857 349.503,407.19 350,409.5C 350.256,406.443 350.756,403.443 351.5,400.5C 351.03,399.537 350.363,399.537 349.5,400.5C 354.896,386.634 364.896,381.468 379.5,385C 387.263,387.926 391.93,393.426 393.5,401.5 Z M 368.5,400.5 C 366.628,402.045 365.628,404.045 365.5,406.5C 366.39,412.778 369.723,414.611 375.5,412C 379.651,404.13 377.318,400.296 368.5,400.5 Z"/></g>
<g><path style="opacity:0.718" fill="#5a5a5a" d="M 349.5,402.5 C 349.5,401.833 349.5,401.167 349.5,400.5C 350.363,399.537 351.03,399.537 351.5,400.5C 350.756,403.443 350.256,406.443 350,409.5C 349.503,407.19 349.337,404.857 349.5,402.5 Z"/></g>
<g><path style="opacity:0.795" fill="#707070" d="M 393.5,401.5 C 394.782,404.936 394.782,408.269 393.5,411.5C 392.167,408.167 392.167,404.833 393.5,401.5 Z"/></g>
<g><path style="opacity:0.431" fill="#b2b2b2" d="M 310.5,417.5 C 309.129,415.859 307.296,414.859 305,414.5C 262.521,415.486 220.021,415.819 177.5,415.5C 176.957,415.44 176.624,415.107 176.5,414.5C 221.495,413.5 266.495,413.167 311.5,413.5C 311.768,415.099 311.434,416.432 310.5,417.5 Z"/></g>
<g><path style="opacity:0.855" fill="#535353" d="M 406.5,437.5 C 406.938,437.435 407.272,437.601 407.5,438C 406,439.5 404.5,441 403,442.5C 402.601,442.272 402.435,441.938 402.5,441.5C 403.5,439.833 404.833,438.5 406.5,437.5 Z"/></g>
</svg>
