<?xml version="1.0" encoding="UTF-8"?>
<!DOCTYPE svg PUBLIC "-//W3C//DTD SVG 1.1//EN" "http://www.w3.org/Graphics/SVG/1.1/DTD/svg11.dtd">
<svg xmlns="http://www.w3.org/2000/svg" version="1.1" width="500px" height="500px" style="shape-rendering:geometricPrecision; text-rendering:geometricPrecision; image-rendering:optimizeQuality; fill-rule:evenodd; clip-rule:evenodd" xmlns:xlink="http://www.w3.org/1999/xlink">
<g><path style="opacity:1" fill="#a2a8bc" d="M 377.5,11.5 C 381.105,11.7986 384.439,12.9653 387.5,15C 396.417,20.3748 405.251,25.8748 414,31.5C 414.667,33.1667 414.667,34.8333 414,36.5C 409.213,45.9097 404.047,55.0763 398.5,64C 396.711,64.5205 395.044,64.1871 393.5,63C 381.884,56.3685 370.55,49.3685 359.5,42C 364.914,31.4354 370.914,21.2688 377.5,11.5 Z"/></g>
<g><path style="opacity:1" fill="#a2a8bc" d="M 340.5,48.5 C 343.794,48.259 346.794,49.0924 349.5,51C 365.5,60.3333 381.5,69.6667 397.5,79C 399.803,80.1348 401.136,81.9682 401.5,84.5C 399.941,89.1973 397.441,93.1973 394,96.5C 367.679,84.9954 346.013,90.662 329,113.5C 316.344,140.914 322.178,163.414 346.5,181C 340.207,191.752 334.04,202.585 328,213.5C 326.503,215.677 324.503,217.01 322,217.5C 301.934,207.762 282.6,196.762 264,184.5C 263.257,181.217 263.924,178.217 266,175.5C 290.34,132.81 315.174,90.477 340.5,48.5 Z"/></g>
<g><path style="opacity:0.16" fill="#0c0c0c" d="M 373.5,102.5 C 371.169,103.317 368.669,103.984 366,104.5C 365.235,104.43 364.735,104.097 364.5,103.5C 367.391,102.597 370.391,102.264 373.5,102.5 Z"/></g>
<g><path style="opacity:1" fill="#a1a7bb" d="M 373.5,102.5 C 400.386,109.604 410.22,126.604 403,153.5C 393.42,169.872 379.254,176.372 360.5,173C 340.342,165.536 331.842,151.036 335,129.5C 339.392,114.605 349.225,105.939 364.5,103.5C 364.735,104.097 365.235,104.43 366,104.5C 368.669,103.984 371.169,103.317 373.5,102.5 Z M 366.5,128.5 C 376.482,127.982 380.649,132.648 379,142.5C 376.367,147.732 372.201,149.565 366.5,148C 360.975,145.081 359.142,140.581 361,134.5C 362.36,131.977 364.193,129.977 366.5,128.5 Z"/></g>
<g><path style="opacity:1" fill="#a2a8bc" d="M 388.5,369.5 C 390.382,368.779 390.715,367.779 389.5,366.5C 403.587,328.74 406.421,290.073 398,250.5C 392.898,228.537 386.232,207.203 378,186.5C 392.664,183.163 403.997,175.163 412,162.5C 442.369,193.536 464.369,229.869 478,271.5C 492.508,322.441 487.008,371.107 461.5,417.5C 427.84,418.5 394.173,418.833 360.5,418.5C 371.096,402.984 380.43,386.651 388.5,369.5 Z"/></g>
<g><path style="opacity:1" fill="#a1a7bb" d="M 266.5,201.5 C 279.434,207.968 292.101,214.968 304.5,222.5C 305.583,223.365 305.749,224.365 305,225.5C 302.906,231.051 299.406,235.384 294.5,238.5C 282.417,232.379 270.917,225.379 260,217.5C 259.333,216.167 259.333,214.833 260,213.5C 262.446,209.606 264.612,205.606 266.5,201.5 Z"/></g>
<g><path style="opacity:1" fill="#a1a7bb" d="M 22.5,431.5 C 24.1054,430.994 24.4387,430.327 23.5,429.5C 38.0685,403.365 52.9018,377.365 68,351.5C 68.833,332.158 68.6664,312.825 67.5,293.5C 63.0401,291.541 60.2068,288.207 59,283.5C 58.3333,277.5 58.3333,271.5 59,265.5C 61.6186,259.443 66.1186,255.61 72.5,254C 93.5511,253.046 114.551,253.379 135.5,255C 143.955,258.739 147.622,265.239 146.5,274.5C 147.143,280.736 145.476,286.236 141.5,291C 139.783,292.559 137.783,293.392 135.5,293.5C 135.062,313.213 135.562,332.88 137,352.5C 155.333,384.5 173.667,416.5 192,448.5C 196.969,468.739 189.469,481.573 169.5,487C 123.121,487.98 76.7876,487.647 30.5,486C 13.6623,478.158 7.82893,465.325 13,447.5C 15.941,441.938 19.1077,436.605 22.5,431.5 Z M 101.5,401.5 C 100.791,400.596 99.791,400.263 98.5,400.5C 96.7857,399.262 94.7857,398.595 92.5,398.5C 90.7857,397.262 88.7857,396.595 86.5,396.5C 84.4006,395.388 82.0673,394.721 79.5,394.5C 73.5129,393.445 67.5129,393.278 61.5,394C 69.5035,381.319 76.6701,368.153 83,354.5C 83.5,334.836 83.6666,315.169 83.5,295.5C 96.1667,295.5 108.833,295.5 121.5,295.5C 121.333,315.169 121.5,334.836 122,354.5C 129.329,370.658 137.829,386.158 147.5,401C 140.628,404.475 133.294,405.975 125.5,405.5C 117.247,405.582 109.247,404.249 101.5,401.5 Z"/></g>
<g><path style="opacity:1" fill="#9fa4b8" d="M 205.5,352.5 C 253.501,352.333 301.501,352.5 349.5,353C 351.32,353.979 352.487,355.479 353,357.5C 353.667,367.5 353.667,377.5 353,387.5C 352.065,390.102 350.232,391.602 347.5,392C 300.5,392.667 253.5,392.667 206.5,392C 204.671,391.727 203.171,390.893 202,389.5C 201.333,378.167 201.333,366.833 202,355.5C 203.145,354.364 204.312,353.364 205.5,352.5 Z"/></g>
<g><path style="opacity:0.433" fill="#292a2d" d="M 389.5,366.5 C 390.715,367.779 390.382,368.779 388.5,369.5C 388.557,368.391 388.89,367.391 389.5,366.5 Z"/></g>
<g><path style="opacity:0.522" fill="#111111" d="M 79.5,394.5 C 82.0673,394.721 84.4006,395.388 86.5,396.5C 83.9635,397.106 81.6302,396.44 79.5,394.5 Z"/></g>
<g><path style="opacity:0.728" fill="#161616" d="M 86.5,396.5 C 88.7857,396.595 90.7857,397.262 92.5,398.5C 89.9899,398.946 87.9899,398.28 86.5,396.5 Z"/></g>
<g><path style="opacity:0.416" fill="#141414" d="M 92.5,398.5 C 94.7857,398.595 96.7857,399.262 98.5,400.5C 96.1016,400.741 94.1016,400.074 92.5,398.5 Z"/></g>
<g><path style="opacity:0.722" fill="#303135" d="M 98.5,400.5 C 99.791,400.263 100.791,400.596 101.5,401.5C 101.565,401.938 101.399,402.272 101,402.5C 100.005,401.934 99.172,401.267 98.5,400.5 Z"/></g>
<g><path style="opacity:1" fill="#a2a9bc" d="M 241.5,404.5 C 265.5,404.5 289.5,404.5 313.5,404.5C 313.8,409.099 313.467,413.599 312.5,418C 288.836,418.5 265.169,418.667 241.5,418.5C 241.5,413.833 241.5,409.167 241.5,404.5 Z"/></g>
<g><path style="opacity:0.537" fill="#313236" d="M 23.5,429.5 C 24.4387,430.327 24.1054,430.994 22.5,431.5C 22.3284,430.508 22.6618,429.842 23.5,429.5 Z"/></g>
<g><path style="opacity:1" fill="#9fa5b9" d="M 218.5,430.5 C 307.501,430.333 396.501,430.5 485.5,431C 486.701,431.903 487.535,433.069 488,434.5C 488.667,448.5 488.667,462.5 488,476.5C 487.5,478.333 486.333,479.5 484.5,480C 395.833,480.667 307.167,480.667 218.5,480C 216.68,479.021 215.513,477.521 215,475.5C 214.333,462.167 214.333,448.833 215,435.5C 215.257,433.093 216.424,431.427 218.5,430.5 Z"/></g>
</svg>
